<mxfile host="app.diagrams.net" agent="Mozilla/5.0 (Macintosh; Intel Mac OS X 10_15_7) AppleWebKit/537.36 (KHTML, like Gecko) Chrome/130.0.0.0 Safari/537.36" version="24.9.2">
  <diagram name="Strona-1" id="SKQPM1xvxKkNtb4ucVYk">
    <mxGraphModel dx="343" dy="311" grid="1" gridSize="10" guides="1" tooltips="1" connect="1" arrows="1" fold="1" page="1" pageScale="1" pageWidth="827" pageHeight="1169" math="0" shadow="0">
      <root>
        <mxCell id="0" />
        <mxCell id="1" parent="0" />
        <mxCell id="EEMyL5rzuhiAZdg8vZsQ-1" value="" style="rounded=1;whiteSpace=wrap;html=1;fillColor=none;" parent="1" vertex="1">
          <mxGeometry x="120" y="160" width="230" height="120" as="geometry" />
        </mxCell>
        <mxCell id="EEMyL5rzuhiAZdg8vZsQ-2" value="Zbiór pytań" style="text;html=1;align=left;verticalAlign=middle;whiteSpace=wrap;rounded=0;" parent="1" vertex="1">
          <mxGeometry x="120" y="135" width="80" height="30" as="geometry" />
        </mxCell>
        <mxCell id="EEMyL5rzuhiAZdg8vZsQ-3" value="&lt;b&gt;PYT&lt;/b&gt;: &lt;span style=&quot;background-color: rgb(213, 232, 212);&quot;&gt;{Treść pytania}&lt;/span&gt;" style="rounded=1;whiteSpace=wrap;html=1;fillColor=none;align=left;" parent="1" vertex="1">
          <mxGeometry x="150" y="170" width="190" height="20" as="geometry" />
        </mxCell>
        <mxCell id="EEMyL5rzuhiAZdg8vZsQ-8" value="&lt;b&gt;PYT&lt;/b&gt;: &lt;span style=&quot;background-color: rgb(213, 232, 212);&quot;&gt;{Treść pytania}&lt;/span&gt;" style="rounded=1;whiteSpace=wrap;html=1;fillColor=none;align=left;" parent="1" vertex="1">
          <mxGeometry x="150" y="250" width="190" height="20" as="geometry" />
        </mxCell>
        <mxCell id="EEMyL5rzuhiAZdg8vZsQ-12" value="" style="endArrow=classic;html=1;rounded=0;exitX=0.5;exitY=1;exitDx=0;exitDy=0;entryX=0.5;entryY=0;entryDx=0;entryDy=0;" parent="1" source="EEMyL5rzuhiAZdg8vZsQ-1" target="EEMyL5rzuhiAZdg8vZsQ-13" edge="1">
          <mxGeometry width="50" height="50" relative="1" as="geometry">
            <mxPoint x="280" y="310" as="sourcePoint" />
            <mxPoint x="235" y="310" as="targetPoint" />
          </mxGeometry>
        </mxCell>
        <mxCell id="EEMyL5rzuhiAZdg8vZsQ-13" value="" style="rounded=1;whiteSpace=wrap;html=1;fillColor=none;" parent="1" vertex="1">
          <mxGeometry x="120" y="330" width="230" height="90" as="geometry" />
        </mxCell>
        <mxCell id="EEMyL5rzuhiAZdg8vZsQ-14" value="Klastrowanie" style="text;html=1;align=left;verticalAlign=middle;whiteSpace=wrap;rounded=0;" parent="1" vertex="1">
          <mxGeometry x="120" y="305" width="80" height="30" as="geometry" />
        </mxCell>
        <mxCell id="EEMyL5rzuhiAZdg8vZsQ-15" value="" style="ellipse;whiteSpace=wrap;html=1;aspect=fixed;fillColor=none;dashed=1;" parent="1" vertex="1">
          <mxGeometry x="260" y="335" width="80" height="80" as="geometry" />
        </mxCell>
        <mxCell id="EEMyL5rzuhiAZdg8vZsQ-16" value="" style="ellipse;whiteSpace=wrap;html=1;aspect=fixed;fillColor=#f8cecc;strokeColor=#b85450;" parent="1" vertex="1">
          <mxGeometry x="274" y="350" width="20" height="20" as="geometry" />
        </mxCell>
        <mxCell id="EEMyL5rzuhiAZdg8vZsQ-17" value="k" style="ellipse;whiteSpace=wrap;html=1;aspect=fixed;fillColor=#f8cecc;strokeColor=#b85450;" parent="1" vertex="1">
          <mxGeometry x="310" y="360" width="20" height="20" as="geometry" />
        </mxCell>
        <mxCell id="EEMyL5rzuhiAZdg8vZsQ-18" value="" style="ellipse;whiteSpace=wrap;html=1;aspect=fixed;fillColor=#f8cecc;strokeColor=#b85450;" parent="1" vertex="1">
          <mxGeometry x="300" y="390" width="20" height="20" as="geometry" />
        </mxCell>
        <mxCell id="EEMyL5rzuhiAZdg8vZsQ-19" value="" style="ellipse;whiteSpace=wrap;html=1;aspect=fixed;fillColor=#f8cecc;strokeColor=#b85450;" parent="1" vertex="1">
          <mxGeometry x="279" y="373" width="20" height="20" as="geometry" />
        </mxCell>
        <mxCell id="EEMyL5rzuhiAZdg8vZsQ-20" value="" style="ellipse;whiteSpace=wrap;html=1;aspect=fixed;fillColor=none;dashed=1;" parent="1" vertex="1">
          <mxGeometry x="130" y="335" width="80" height="80" as="geometry" />
        </mxCell>
        <mxCell id="EEMyL5rzuhiAZdg8vZsQ-21" value="" style="ellipse;whiteSpace=wrap;html=1;aspect=fixed;fillColor=#fff2cc;strokeColor=#d6b656;" parent="1" vertex="1">
          <mxGeometry x="150" y="340" width="20" height="20" as="geometry" />
        </mxCell>
        <mxCell id="EEMyL5rzuhiAZdg8vZsQ-22" value="1" style="ellipse;whiteSpace=wrap;html=1;aspect=fixed;fillColor=#fff2cc;strokeColor=#d6b656;" parent="1" vertex="1">
          <mxGeometry x="160" y="365" width="20" height="20" as="geometry" />
        </mxCell>
        <mxCell id="EEMyL5rzuhiAZdg8vZsQ-23" value="" style="ellipse;whiteSpace=wrap;html=1;aspect=fixed;fillColor=#fff2cc;strokeColor=#d6b656;" parent="1" vertex="1">
          <mxGeometry x="182" y="373" width="20" height="20" as="geometry" />
        </mxCell>
        <mxCell id="EEMyL5rzuhiAZdg8vZsQ-24" value="" style="ellipse;whiteSpace=wrap;html=1;aspect=fixed;fillColor=#fff2cc;strokeColor=#d6b656;" parent="1" vertex="1">
          <mxGeometry x="140" y="380" width="20" height="20" as="geometry" />
        </mxCell>
        <mxCell id="EEMyL5rzuhiAZdg8vZsQ-25" value="..." style="text;html=1;align=center;verticalAlign=middle;whiteSpace=wrap;rounded=0;" parent="1" vertex="1">
          <mxGeometry x="195" y="355" width="80" height="30" as="geometry" />
        </mxCell>
        <mxCell id="EEMyL5rzuhiAZdg8vZsQ-26" value="" style="endArrow=classic;html=1;rounded=0;exitX=0.5;exitY=1;exitDx=0;exitDy=0;entryX=0.5;entryY=0;entryDx=0;entryDy=0;" parent="1" source="EEMyL5rzuhiAZdg8vZsQ-13" target="EEMyL5rzuhiAZdg8vZsQ-27" edge="1">
          <mxGeometry width="50" height="50" relative="1" as="geometry">
            <mxPoint x="229.76" y="400" as="sourcePoint" />
            <mxPoint x="270" y="420" as="targetPoint" />
          </mxGeometry>
        </mxCell>
        <mxCell id="EEMyL5rzuhiAZdg8vZsQ-27" value="LLM&lt;div&gt;&lt;font style=&quot;font-size: 9px;&quot;&gt;Generowanie łańcuchów rozumowania na bazie reprezentantów (Zero-Shot CoT)&lt;/font&gt;&lt;/div&gt;" style="rounded=1;whiteSpace=wrap;html=1;fillColor=#dae8fc;strokeColor=#6c8ebf;" parent="1" vertex="1">
          <mxGeometry x="120" y="476" width="230" height="55" as="geometry" />
        </mxCell>
        <mxCell id="EEMyL5rzuhiAZdg8vZsQ-33" value="&lt;b&gt;PYT&lt;/b&gt;: &lt;span style=&quot;background-color: rgb(213, 232, 212);&quot;&gt;{Treść pytania}&lt;/span&gt;&amp;nbsp;&lt;span style=&quot;background-color: rgb(218, 232, 252);&quot;&gt;&lt;b style=&quot;&quot;&gt;ODP&lt;/b&gt;: {Łańcuch rozumowania} {Oczekiwana odpowiedź}&lt;/span&gt;" style="rounded=1;whiteSpace=wrap;html=1;fillColor=none;align=left;" parent="1" vertex="1">
          <mxGeometry x="430" y="200" width="230" height="40" as="geometry" />
        </mxCell>
        <mxCell id="EEMyL5rzuhiAZdg8vZsQ-35" value="..." style="text;html=1;align=center;verticalAlign=middle;whiteSpace=wrap;rounded=0;horizontal=0;" parent="1" vertex="1">
          <mxGeometry x="500" y="254" width="80" height="10" as="geometry" />
        </mxCell>
        <mxCell id="EEMyL5rzuhiAZdg8vZsQ-37" value="&lt;b&gt;1&lt;/b&gt;" style="rounded=1;whiteSpace=wrap;html=1;fillColor=none;align=center;" parent="1" vertex="1">
          <mxGeometry x="130" y="170" width="16" height="20" as="geometry" />
        </mxCell>
        <mxCell id="EEMyL5rzuhiAZdg8vZsQ-38" value="&lt;b&gt;n&lt;/b&gt;" style="rounded=1;whiteSpace=wrap;html=1;fillColor=none;align=center;" parent="1" vertex="1">
          <mxGeometry x="130" y="250" width="16" height="20" as="geometry" />
        </mxCell>
        <mxCell id="EEMyL5rzuhiAZdg8vZsQ-39" value="&lt;b&gt;1&lt;/b&gt;" style="rounded=1;whiteSpace=wrap;html=1;fillColor=none;align=center;" parent="1" vertex="1">
          <mxGeometry x="400" y="215" width="16" height="20" as="geometry" />
        </mxCell>
        <mxCell id="EEMyL5rzuhiAZdg8vZsQ-41" value="&lt;b&gt;k&lt;/b&gt;" style="rounded=1;whiteSpace=wrap;html=1;fillColor=none;align=center;" parent="1" vertex="1">
          <mxGeometry x="400" y="280" width="16" height="20" as="geometry" />
        </mxCell>
        <mxCell id="EEMyL5rzuhiAZdg8vZsQ-43" value="..." style="text;html=1;align=center;verticalAlign=middle;whiteSpace=wrap;rounded=0;horizontal=0;" parent="1" vertex="1">
          <mxGeometry x="396" y="255" width="20" height="10" as="geometry" />
        </mxCell>
        <mxCell id="EEMyL5rzuhiAZdg8vZsQ-46" value="..." style="text;html=1;align=center;verticalAlign=middle;whiteSpace=wrap;rounded=0;horizontal=0;" parent="1" vertex="1">
          <mxGeometry x="126" y="230" width="20" height="10" as="geometry" />
        </mxCell>
        <mxCell id="EEMyL5rzuhiAZdg8vZsQ-47" value="..." style="text;html=1;align=center;verticalAlign=middle;whiteSpace=wrap;rounded=0;horizontal=0;" parent="1" vertex="1">
          <mxGeometry x="220" y="230" width="20" height="10" as="geometry" />
        </mxCell>
        <mxCell id="EEMyL5rzuhiAZdg8vZsQ-61" value="" style="rounded=1;whiteSpace=wrap;html=1;fillColor=none;" parent="1" vertex="1">
          <mxGeometry x="377" y="160" width="310" height="265" as="geometry" />
        </mxCell>
        <mxCell id="EEMyL5rzuhiAZdg8vZsQ-48" value="LLM&lt;div&gt;&lt;span style=&quot;background-color: initial;&quot;&gt;&lt;font style=&quot;font-size: 9px;&quot;&gt;Generowanie odpowiedzi na pytanie testowe (Few-Shot CoT)&lt;/font&gt;&lt;/span&gt;&lt;/div&gt;" style="rounded=1;whiteSpace=wrap;html=1;fillColor=#dae8fc;strokeColor=#6c8ebf;" parent="1" vertex="1">
          <mxGeometry x="377" y="441.5" width="310" height="30" as="geometry" />
        </mxCell>
        <mxCell id="EEMyL5rzuhiAZdg8vZsQ-55" value="" style="rounded=1;whiteSpace=wrap;html=1;fillColor=none;dashed=1;strokeWidth=1;" parent="1" vertex="1">
          <mxGeometry x="390" y="190" width="284" height="140" as="geometry" />
        </mxCell>
        <mxCell id="EEMyL5rzuhiAZdg8vZsQ-54" value="&lt;b&gt;PYT&lt;/b&gt;: &lt;span style=&quot;background-color: rgb(213, 232, 212);&quot;&gt;{Treść pytania}&lt;/span&gt;&amp;nbsp;&lt;span style=&quot;background-color: rgb(218, 232, 252);&quot;&gt;&lt;b style=&quot;&quot;&gt;ODP&lt;/b&gt;: {Łańcuch rozumowania} {Oczekiwana odpowiedź}&lt;/span&gt;" style="rounded=1;whiteSpace=wrap;html=1;fillColor=none;align=left;" parent="1" vertex="1">
          <mxGeometry x="425" y="270" width="230" height="40" as="geometry" />
        </mxCell>
        <mxCell id="EEMyL5rzuhiAZdg8vZsQ-56" value="Kompozycja przykładów" style="text;html=1;align=left;verticalAlign=middle;whiteSpace=wrap;rounded=0;" parent="1" vertex="1">
          <mxGeometry x="390" y="165" width="140" height="30" as="geometry" />
        </mxCell>
        <mxCell id="EEMyL5rzuhiAZdg8vZsQ-58" value="Pytanie testowe" style="text;html=1;align=left;verticalAlign=middle;whiteSpace=wrap;rounded=0;" parent="1" vertex="1">
          <mxGeometry x="390" y="325" width="140" height="30" as="geometry" />
        </mxCell>
        <mxCell id="EEMyL5rzuhiAZdg8vZsQ-59" value="" style="rounded=1;whiteSpace=wrap;html=1;fillColor=none;dashed=1;strokeWidth=1;" parent="1" vertex="1">
          <mxGeometry x="390" y="350" width="284" height="60" as="geometry" />
        </mxCell>
        <mxCell id="EEMyL5rzuhiAZdg8vZsQ-60" value="&lt;b&gt;PYT&lt;/b&gt;: {Treść Pytania}" style="rounded=1;whiteSpace=wrap;html=1;fillColor=none;align=left;" parent="1" vertex="1">
          <mxGeometry x="400" y="360" width="260" height="40" as="geometry" />
        </mxCell>
        <mxCell id="EEMyL5rzuhiAZdg8vZsQ-62" value="Kompozycja promptu Few-Shot CoT" style="text;html=1;align=left;verticalAlign=middle;whiteSpace=wrap;rounded=0;" parent="1" vertex="1">
          <mxGeometry x="377" y="135" width="213" height="30" as="geometry" />
        </mxCell>
        <mxCell id="EEMyL5rzuhiAZdg8vZsQ-63" value="" style="endArrow=classic;html=1;rounded=0;exitX=0.5;exitY=1;exitDx=0;exitDy=0;entryX=0.5;entryY=0;entryDx=0;entryDy=0;" parent="1" source="EEMyL5rzuhiAZdg8vZsQ-61" target="EEMyL5rzuhiAZdg8vZsQ-48" edge="1">
          <mxGeometry width="50" height="50" relative="1" as="geometry">
            <mxPoint x="380" y="400" as="sourcePoint" />
            <mxPoint x="430" y="350" as="targetPoint" />
          </mxGeometry>
        </mxCell>
        <mxCell id="EEMyL5rzuhiAZdg8vZsQ-70" value="" style="endArrow=classic;html=1;rounded=0;exitX=0.5;exitY=1;exitDx=0;exitDy=0;" parent="1" source="EEMyL5rzuhiAZdg8vZsQ-48" edge="1">
          <mxGeometry width="50" height="50" relative="1" as="geometry">
            <mxPoint x="370" y="320" as="sourcePoint" />
            <mxPoint x="532" y="490" as="targetPoint" />
          </mxGeometry>
        </mxCell>
        <mxCell id="EEMyL5rzuhiAZdg8vZsQ-71" value="&lt;b&gt;ODP:&amp;nbsp;&lt;/b&gt;{Odpowiedź}" style="rounded=1;whiteSpace=wrap;html=1;fillColor=none;align=left;" parent="1" vertex="1">
          <mxGeometry x="396" y="490" width="260" height="40" as="geometry" />
        </mxCell>
        <mxCell id="1NhU4R0SHfofNBXyIxQD-1" value="&lt;b&gt;2&lt;/b&gt;" style="rounded=1;whiteSpace=wrap;html=1;fillColor=none;align=center;" parent="1" vertex="1">
          <mxGeometry x="130" y="200" width="16" height="20" as="geometry" />
        </mxCell>
        <mxCell id="1NhU4R0SHfofNBXyIxQD-2" value="&lt;b&gt;PYT&lt;/b&gt;: &lt;span style=&quot;background-color: rgb(213, 232, 212);&quot;&gt;{Treść pytania}&lt;/span&gt;" style="rounded=1;whiteSpace=wrap;html=1;fillColor=none;align=left;" parent="1" vertex="1">
          <mxGeometry x="150" y="200" width="190" height="20" as="geometry" />
        </mxCell>
        <mxCell id="1NhU4R0SHfofNBXyIxQD-3" value="" style="endArrow=classic;html=1;rounded=0;exitX=1;exitY=0.5;exitDx=0;exitDy=0;entryX=0;entryY=0.5;entryDx=0;entryDy=0;" parent="1" source="EEMyL5rzuhiAZdg8vZsQ-27" target="EEMyL5rzuhiAZdg8vZsQ-55" edge="1">
          <mxGeometry width="50" height="50" relative="1" as="geometry">
            <mxPoint x="340" y="430" as="sourcePoint" />
            <mxPoint x="390" y="380" as="targetPoint" />
            <Array as="points">
              <mxPoint x="360" y="504" />
              <mxPoint x="360" y="260" />
            </Array>
          </mxGeometry>
        </mxCell>
      </root>
    </mxGraphModel>
  </diagram>
</mxfile>
